<svg xmlns="http://www.w3.org/2000/svg" width="90mm" height="23.12mm" viewBox="0 0 90 23.12"><path d="M 8.8786 23.1214 C 2.2196 16.8323 0 12.763 0 8.8786 C 0 3.9751 3.9751 0 8.8786 0 C 13.7821 0 17.7572 3.9751 17.7572 8.8786 C 17.7572 12.763 15.5375 16.8323 8.8786 23.1214 Z" fill="#00AAEF"/><path d="M 4.9942 8.8786 C 4.9942 6.7333 6.7333 4.9942 8.8786 4.9942 C 11.0239 4.9942 12.763 6.7333 12.763 8.8786 C 12.763 11.0239 11.0239 12.763 8.8786 12.763 C 6.7333 12.763 4.9942 11.0239 4.9942 8.8786 Z" fill="#FFFFFF"/><path d="M 7.3988 8.8786 C 7.3988 8.0614 8.0614 7.3988 8.8786 7.3988 C 9.6958 7.3988 10.3584 8.0614 10.3584 8.8786 C 10.3584 9.6958 9.6958 10.3584 8.8786 10.3584 C 8.0614 10.3584 7.3988 9.6958 7.3988 8.8786 Z" fill="#1B2A4A"/><path d="M 29.6878 8.8405 Q 29.5681 8.8405 29.53 8.7317 L 27.4573 1.1805 L 27.4464 1.1316 Q 27.4464 1.0337 27.5715 1.0337 L 29.2635 1.0337 Q 29.3777 1.0337 29.4104 1.1425 L 30.3787 5.2064 Q 30.3896 5.2499 30.4114 5.2499 Q 30.4386 5.2499 30.4495 5.2064 L 31.3145 1.1588 Q 31.3417 1.0337 31.4614 1.0337 L 33.0119 1.0337 Q 33.1261 1.0337 33.1587 1.1425 L 34.1271 5.2064 Q 34.138 5.2499 34.1598 5.2499 Q 34.1815 5.2499 34.1924 5.2064 L 35.0955 1.1588 Q 35.1227 1.0337 35.2424 1.0337 L 36.8908 1.0337 Q 37.0486 1.0337 37.0159 1.1805 L 35.1336 8.7317 Q 35.0955 8.8405 34.9758 8.8405 L 33.3818 8.8405 Q 33.2567 8.8405 33.2349 8.7154 L 32.2665 4.4121 Q 32.2556 4.3686 32.2339 4.3686 Q 32.2067 4.3686 32.1958 4.4121 L 31.3254 8.7154 Q 31.3036 8.8405 31.1839 8.8405 L 29.6878 8.8405 Z M 43.158 8.8405 Q 43.0384 8.8405 43.0057 8.7317 L 42.7119 7.7361 Q 42.6902 7.6926 42.6575 7.6926 L 40.1169 7.6926 Q 40.0788 7.6926 40.0571 7.7361 L 39.7687 8.7317 Q 39.7361 8.8405 39.611 8.8405 L 37.9081 8.8405 Q 37.8374 8.8405 37.8048 8.8024 Q 37.7721 8.7644 37.7939 8.6827 L 40.1822 1.1425 Q 40.2148 1.0337 40.3291 1.0337 L 42.4345 1.0337 Q 42.5433 1.0337 42.5814 1.1425 L 44.9751 8.6827 Q 44.986 8.7045 44.986 8.7426 Q 44.986 8.8405 44.8663 8.8405 L 43.158 8.8405 Z M 40.5032 6.1965 Q 40.4923 6.2618 40.5521 6.2618 L 42.2114 6.2618 Q 42.2767 6.2618 42.255 6.1965 L 41.4063 3.3295 Q 41.3954 3.286 41.3736 3.2914 Q 41.3519 3.2968 41.341 3.3295 L 40.5032 6.1965 Z M 48.3644 8.8188 Q 48.31 8.8188 48.2719 8.7807 Q 48.2339 8.7426 48.2339 8.6827 L 48.2339 6.0388 Q 48.2339 5.9952 48.223 5.9735 L 45.9326 1.1914 Q 45.9108 1.1425 45.9108 1.1207 Q 45.9108 1.0337 46.036 1.0337 L 47.7497 1.0337 Q 47.8639 1.0337 47.9074 1.1316 L 49.1261 3.9551 Q 49.1587 4.0204 49.1914 3.9551 L 50.4154 1.1316 Q 50.4644 1.0337 50.5732 1.0337 L 52.3032 1.0337 Q 52.3794 1.0337 52.4066 1.0717 Q 52.4338 1.1098 52.4011 1.1914 L 50.0836 5.9735 Q 50.0727 5.9952 50.0727 6.0388 L 50.0727 8.6827 Q 50.0727 8.7426 50.0346 8.7807 Q 49.9965 8.8188 49.9367 8.8188 L 48.3644 8.8188 Z M 57.9557 1.0337 Q 58.7119 1.0337 59.2995 1.3438 Q 59.887 1.6593 60.2026 2.2196 Q 60.5181 2.7854 60.5181 3.5199 Q 60.5181 4.2434 60.1917 4.8038 Q 59.8598 5.3587 59.2614 5.6634 Q 58.6575 5.9626 57.8632 5.9626 L 56.5031 5.9626 Q 56.4487 5.9626 56.4487 6.017 L 56.4487 8.7045 Q 56.4487 8.7644 56.4107 8.8024 Q 56.3726 8.8405 56.3182 8.8405 L 54.7296 8.8405 Q 54.6752 8.8405 54.6371 8.8024 Q 54.599 8.7644 54.599 8.7045 L 54.599 1.1697 Q 54.599 1.1098 54.6371 1.0717 Q 54.6752 1.0337 54.7296 1.0337 L 57.9557 1.0337 Z M 57.6565 4.4937 Q 58.1135 4.4937 58.3964 4.2326 Q 58.6793 3.9769 58.6793 3.5634 Q 58.6793 3.1391 58.3964 2.8779 Q 58.1135 2.6168 57.6565 2.6168 L 56.5031 2.6168 Q 56.4487 2.6168 56.4487 2.6712 L 56.4487 4.4339 Q 56.4487 4.4937 56.5031 4.4937 L 57.6565 4.4937 Z M 65.6266 8.9656 Q 64.7235 8.9656 64.038 8.6011 Q 63.3525 8.2366 62.9717 7.5784 Q 62.5909 6.9201 62.5909 6.0551 L 62.5909 3.8245 Q 62.5909 2.9759 62.9717 2.323 Q 63.3525 1.6702 64.038 1.3057 Q 64.7235 0.9466 65.6266 0.9466 Q 66.5297 0.9466 67.2206 1.3057 Q 67.9115 1.6702 68.2923 2.323 Q 68.6731 2.9759 68.6731 3.8245 L 68.6731 6.0551 Q 68.6731 6.9201 68.2923 7.5784 Q 67.9115 8.2366 67.2206 8.6011 Q 66.5297 8.9656 65.6266 8.9656 Z M 65.6266 7.3771 Q 66.1597 7.3771 66.4916 7.0343 Q 66.818 6.6862 66.818 6.1095 L 66.818 3.7973 Q 66.818 3.2315 66.4916 2.8779 Q 66.1597 2.5297 65.6266 2.5297 Q 65.1043 2.5297 64.7724 2.8779 Q 64.446 3.2315 64.446 3.7973 L 64.446 6.1095 Q 64.446 6.6862 64.7724 7.0343 Q 65.1043 7.3771 65.6266 7.3771 Z M 71.1866 8.8405 Q 71.1322 8.8405 71.0941 8.8024 Q 71.056 8.7644 71.056 8.7045 L 71.056 1.1697 Q 71.056 1.1098 71.0941 1.0717 Q 71.1322 1.0337 71.1866 1.0337 L 72.7751 1.0337 Q 72.8295 1.0337 72.8676 1.0717 Q 72.9057 1.1098 72.9057 1.1697 L 72.9057 8.7045 Q 72.9057 8.7644 72.8676 8.8024 Q 72.8295 8.8405 72.7751 8.8405 L 71.1866 8.8405 Z M 79.853 1.1697 Q 79.853 1.1098 79.8911 1.0717 Q 79.9292 1.0337 79.989 1.0337 L 81.5721 1.0337 Q 81.6265 1.0337 81.6646 1.0717 Q 81.7027 1.1098 81.7027 1.1697 L 81.7027 8.7045 Q 81.7027 8.7644 81.6646 8.8024 Q 81.6265 8.8405 81.5721 8.8405 L 80.0543 8.8405 Q 79.94 8.8405 79.8965 8.7535 L 77.3341 4.4937 Q 77.3124 4.4556 77.2906 4.4611 Q 77.2634 4.4665 77.2634 4.5155 L 77.2743 8.7045 Q 77.2743 8.7644 77.2362 8.8024 Q 77.1981 8.8405 77.1437 8.8405 L 75.5606 8.8405 Q 75.5062 8.8405 75.4627 8.8024 Q 75.4246 8.7644 75.4246 8.7045 L 75.4246 1.1697 Q 75.4246 1.1098 75.4627 1.0717 Q 75.5062 1.0337 75.5606 1.0337 L 77.0893 1.0337 Q 77.1981 1.0337 77.2416 1.1207 L 79.7986 5.3696 Q 79.8203 5.4077 79.8421 5.4022 Q 79.8639 5.3968 79.8639 5.3478 L 79.853 1.1697 Z M 89.8686 1.0337 Q 89.923 1.0337 89.9611 1.0717 Q 89.9992 1.1098 89.9992 1.1697 L 89.9992 2.4971 Q 89.9992 2.5515 89.9611 2.5896 Q 89.923 2.6277 89.8686 2.6277 L 87.9155 2.6277 Q 87.8611 2.6277 87.8611 2.6821 L 87.8611 8.7045 Q 87.8611 8.7644 87.8176 8.8024 Q 87.7795 8.8405 87.7251 8.8405 L 86.142 8.8405 Q 86.0876 8.8405 86.0441 8.8024 Q 86.006 8.7644 86.006 8.7045 L 86.006 2.6821 Q 86.006 2.6277 85.9516 2.6277 L 84.0692 2.6277 Q 84.0094 2.6277 83.9713 2.5896 Q 83.9332 2.5515 83.9332 2.4971 L 83.9332 1.1697 Q 83.9332 1.1098 83.9713 1.0717 Q 84.0094 1.0337 84.0692 1.0337 L 89.8686 1.0337 Z" fill="#FFFFFF"/><path d="M 32.5222 18.7147 Q 32.7453 19.2315 32.7453 19.9007 Q 32.7453 20.4991 32.544 21.0159 Q 32.2774 21.7286 31.6463 22.1312 Q 31.0153 22.5284 30.1557 22.5284 Q 29.307 22.5284 28.6705 22.1095 Q 28.0285 21.6851 27.7456 20.9561 Q 27.5933 20.5209 27.5715 20.0204 Q 27.5715 19.8898 27.7021 19.8898 L 29.0187 19.8898 Q 29.1547 19.8898 29.1547 20.0204 Q 29.1982 20.3903 29.2744 20.5698 Q 29.3777 20.8582 29.6062 21.0214 Q 29.8347 21.1792 30.1448 21.1792 Q 30.7704 21.1792 31.0044 20.6351 Q 31.1621 20.2978 31.1621 19.8517 Q 31.1621 19.3295 30.9935 18.9976 Q 30.7378 18.4699 30.1339 18.4699 Q 30.0142 18.4699 29.8782 18.546 Q 29.7422 18.6168 29.5572 18.7473 Q 29.5083 18.7854 29.4648 18.7854 Q 29.3995 18.7854 29.3668 18.7147 L 28.7086 17.7898 Q 28.6868 17.7572 28.6868 17.7137 Q 28.6868 17.6484 28.7303 17.5994 L 30.5039 16.0489 Q 30.5256 16.0272 30.5202 16.0054 Q 30.5147 15.9837 30.4821 15.9837 L 27.8599 15.9837 Q 27.8055 15.9837 27.7674 15.9456 Q 27.7239 15.9075 27.7239 15.8476 L 27.7239 14.7705 Q 27.7239 14.7106 27.7674 14.6725 Q 27.8055 14.6345 27.8599 14.6345 L 32.5113 14.6345 Q 32.5657 14.6345 32.6038 14.6725 Q 32.6419 14.7106 32.6419 14.7705 L 32.6419 15.9945 Q 32.6419 16.087 32.5657 16.1632 L 31.1077 17.5015 Q 31.0805 17.5233 31.086 17.545 Q 31.0914 17.5668 31.1404 17.5668 Q 32.1088 17.7572 32.5222 18.7147 Z M 41.2975 18.6603 Q 41.564 19.1608 41.564 19.9442 Q 41.564 20.5916 41.3519 21.103 Q 41.0635 21.7613 40.4488 22.1421 Q 39.834 22.5175 39.0016 22.5175 Q 38.1421 22.5175 37.5164 22.1258 Q 36.8908 21.7286 36.6133 21.0268 Q 36.412 20.5318 36.412 19.9333 L 36.412 16.5766 Q 36.412 15.9728 36.733 15.5103 Q 37.0486 15.0479 37.6198 14.7977 Q 38.1856 14.5474 38.92 14.5474 Q 39.649 14.5474 40.204 14.7977 Q 40.7643 15.0479 41.069 15.4995 Q 41.3736 15.951 41.3736 16.544 L 41.3736 16.8541 Q 41.3736 16.9085 41.3355 16.9466 Q 41.2975 16.9901 41.2431 16.9901 L 39.9374 16.9901 Q 39.883 16.9901 39.8395 16.9466 Q 39.8014 16.9085 39.8014 16.8541 L 39.8014 16.7562 Q 39.8014 16.3862 39.5566 16.1414 Q 39.3117 15.8966 38.92 15.8966 Q 38.512 15.8966 38.2454 16.1469 Q 37.9843 16.3971 37.9843 16.7888 L 37.9843 17.8334 Q 37.9843 17.8714 38.0061 17.8769 Q 38.0278 17.8823 38.0496 17.8551 Q 38.512 17.4689 39.2682 17.4689 Q 39.9374 17.4689 40.4651 17.7735 Q 40.9982 18.0782 41.2975 18.6603 Z M 39.8231 20.6678 Q 39.9918 20.3794 39.9918 19.966 Q 39.9918 19.5199 39.8122 19.2315 Q 39.5348 18.7854 39.0016 18.7854 Q 38.3978 18.7854 38.1638 19.2424 Q 37.9952 19.5307 37.9952 19.9877 Q 37.9952 20.3903 38.1421 20.6678 Q 38.3869 21.1574 38.9908 21.1574 Q 39.5674 21.1574 39.8231 20.6678 Z M 47.8204 22.5664 Q 46.5963 22.5664 45.8782 21.8755 Q 45.1655 21.19 45.1655 20.0095 L 45.1655 17.0663 Q 45.1655 15.9075 45.8782 15.2275 Q 46.5963 14.5474 47.8204 14.5474 Q 49.0499 14.5474 49.768 15.2275 Q 50.4862 15.9075 50.4862 17.0663 L 50.4862 20.0095 Q 50.4862 21.19 49.768 21.8755 Q 49.0499 22.5664 47.8204 22.5664 Z M 47.8204 21.2172 Q 48.3209 21.2172 48.6201 20.9071 Q 48.9139 20.6025 48.9139 20.0857 L 48.9139 17.0228 Q 48.9139 16.5059 48.6201 16.2013 Q 48.3209 15.8966 47.8204 15.8966 Q 47.3308 15.8966 47.037 16.2013 Q 46.7378 16.5059 46.7378 17.0228 L 46.7378 20.0857 Q 46.7378 20.6025 47.037 20.9071 Q 47.3308 21.2172 47.8204 21.2172 Z" fill="#00AAEF"/></svg>